<svg width="191" height="208" viewBox="0 0 191 208" fill="none" xmlns="http://www.w3.org/2000/svg">
<mask id="mask0_397_547" style="mask-type:alpha" maskUnits="userSpaceOnUse" x="0" y="0" width="191" height="208">
<path fill-rule="evenodd" clip-rule="evenodd" d="M43.2249 0.101805C38.9846 0.266102 33.5195 0.627705 31.0355 1.17418V1.17418C27.2437 2.0088 23.663 3.27422 20.6851 4.92855V4.92855C17.1864 6.87209 14.0506 9.35181 11.343 12.2985V12.2985C8.62916 15.2509 6.34507 18.6721 4.55484 22.4914V22.4914C3.04133 25.7199 1.88106 29.5991 1.1121 33.7087V33.7087C0.600649 36.4436 0.262397 42.4449 0.109061 47.0967V47.0967C0.0468799 48.998 0.0149755 51.4585 0.0149755 52.5934V52.5934L0 154.641C0 155.771 0.0315788 158.233 0.0934343 160.136V160.136C0.244166 164.758 0.575907 170.715 1.07759 173.422V173.422C1.84297 177.555 3.00422 181.458 4.52163 184.704V184.704C6.30502 188.518 8.57968 191.935 11.2831 194.887V194.887C13.9917 197.845 17.1307 200.334 20.6343 202.286V202.286C23.5966 203.935 27.1555 205.201 30.9254 206.039V206.039C33.4345 206.596 38.9406 206.965 43.2083 207.132V207.132C44.952 207.2 47.2097 207.235 48.2508 207.235V207.235L141.873 207.251C142.91 207.251 145.168 207.217 146.914 207.149V207.149C151.154 206.984 156.619 206.623 159.103 206.076V206.076C162.895 205.242 166.476 203.976 169.453 202.322V202.322C172.952 200.378 176.088 197.899 178.795 194.952V194.952C181.509 192 183.793 188.579 185.584 184.759V184.759C187.097 181.531 188.258 177.652 189.026 173.542V173.542C189.538 170.807 189.876 164.805 190.029 160.154V160.154C190.092 158.253 190.123 155.792 190.123 154.657V154.657L190.139 52.6097C190.139 51.4791 190.107 49.0178 190.045 47.1148V47.1148C189.894 42.4931 189.563 36.5362 189.061 33.8286V33.8286C188.295 29.6956 187.134 25.7926 185.617 22.5467V22.5467C183.834 18.7328 181.558 15.3152 178.856 12.3635V12.3635C176.147 9.40611 173.008 6.91609 169.504 4.96475V4.96475C166.542 3.31503 162.983 2.04997 159.213 1.21215V1.21215C156.704 0.654677 151.198 0.285982 146.93 0.119201V0.119201C145.186 0.0507137 142.929 0.0162928 141.888 0.0162928V0.0162928L48.2658 -3.03905e-05C47.2286 -3.03905e-05 44.9705 0.0340273 43.2249 0.101805" fill="white"/>
</mask>
<g mask="url(#mask0_397_547)">
<path d="M43.2249 0.101805C38.9846 0.266102 33.5195 0.627705 31.0355 1.17418V1.17418C27.2437 2.0088 23.663 3.27422 20.6851 4.92855V4.92855C17.1864 6.87209 14.0506 9.35181 11.343 12.2985V12.2985C8.62916 15.2509 6.34507 18.6721 4.55484 22.4914V22.4914C3.04133 25.7199 1.88106 29.5991 1.1121 33.7087V33.7087C0.600649 36.4436 0.262397 42.4449 0.109061 47.0967V47.0967C0.0468799 48.998 0.0149755 51.4585 0.0149755 52.5934V52.5934L0 154.641C0 155.771 0.0315788 158.233 0.0934343 160.136V160.136C0.244166 164.758 0.575907 170.715 1.07759 173.422V173.422C1.84297 177.555 3.00422 181.458 4.52163 184.704V184.704C6.30502 188.518 8.57968 191.935 11.2831 194.887V194.887C13.9917 197.845 17.1307 200.334 20.6343 202.286V202.286C23.5966 203.935 27.1555 205.201 30.9254 206.039V206.039C33.4345 206.596 38.9406 206.965 43.2083 207.132V207.132C44.952 207.2 47.2097 207.235 48.2508 207.235V207.235L141.873 207.251C142.91 207.251 145.168 207.217 146.914 207.149V207.149C151.154 206.984 156.619 206.623 159.103 206.076V206.076C162.895 205.242 166.476 203.976 169.453 202.322V202.322C172.952 200.378 176.088 197.899 178.795 194.952V194.952C181.509 192 183.793 188.579 185.584 184.759V184.759C187.097 181.531 188.258 177.652 189.026 173.542V173.542C189.538 170.807 189.876 164.805 190.029 160.154V160.154C190.092 158.253 190.123 155.792 190.123 154.657V154.657L190.139 52.6097C190.139 51.4791 190.107 49.0178 190.045 47.1148V47.1148C189.894 42.4931 189.563 36.5362 189.061 33.8286V33.8286C188.295 29.6956 187.134 25.7926 185.617 22.5467V22.5467C183.834 18.7328 181.558 15.3152 178.856 12.3635V12.3635C176.147 9.40611 173.008 6.91609 169.504 4.96475V4.96475C166.542 3.31503 162.983 2.04997 159.213 1.21215V1.21215C156.704 0.654677 151.198 0.285982 146.93 0.119201V0.119201C145.186 0.0507137 142.929 0.0162928 141.888 0.0162928V0.0162928L48.2658 -3.03905e-05C47.2286 -3.03905e-05 44.9705 0.0340273 43.2249 0.101805" fill="url(#paint0_linear_397_547)"/>
<path fill-rule="evenodd" clip-rule="evenodd" d="M128.029 117.267C126.336 116.343 118.01 111.879 116.457 111.263C114.905 110.647 113.776 110.339 112.647 112.187C111.518 114.034 108.273 118.19 107.285 119.422C106.297 120.653 105.309 120.808 103.616 119.884C101.922 118.96 96.4654 117.012 89.997 110.725C84.9626 105.832 81.5638 99.7883 80.5757 97.9409C79.588 96.0936 80.4706 95.095 81.3187 94.1749C82.0801 93.3484 83.0119 92.0198 83.8586 90.9421C84.7054 89.8644 84.9877 89.0947 85.5522 87.8634C86.1167 86.6317 85.8344 85.554 85.4109 84.6303C84.9877 83.7066 81.6009 74.6238 80.1896 70.929C78.8151 67.3308 77.4188 67.8176 76.3793 67.7612C75.3926 67.7076 74.2626 67.6963 73.1335 67.6963C72.0045 67.6963 70.17 68.1583 68.6174 70.0053C67.0652 71.8527 62.6904 76.3175 62.6904 85.4C62.6904 94.4829 68.7587 103.258 69.6055 104.489C70.4523 105.721 81.5472 124.36 98.5353 132.353C102.576 134.255 105.73 135.39 108.19 136.241C112.247 137.645 115.938 137.447 118.856 136.972C122.11 136.442 128.876 132.507 130.287 128.197C131.698 123.887 131.698 120.192 131.275 119.422C130.852 118.652 129.723 118.19 128.029 117.267M97.1294 163.24H97.1066C86.9981 163.236 77.0836 160.277 68.4346 154.684L66.3774 153.353L45.0565 159.448L50.7475 136.796L49.4079 134.474C43.7689 124.701 40.7908 113.405 40.795 101.806C40.8074 67.9616 66.0786 40.4266 97.1518 40.4266C112.198 40.433 126.342 46.8264 136.978 58.4288C147.614 70.0314 153.468 85.4542 153.462 101.856C153.45 135.703 128.179 163.24 97.1294 163.24M145.073 49.6122C132.277 35.6526 115.26 27.9611 97.1287 27.9533C59.7713 27.9533 29.3667 61.0815 29.3517 101.801C29.3469 114.818 32.4676 127.524 38.3986 138.723L28.7833 176.993L64.7129 166.724C74.6124 172.607 85.7581 175.708 97.1017 175.713H97.1294H97.1297C134.484 175.713 164.891 142.581 164.906 101.86C164.913 82.1268 157.87 63.5715 145.073 49.6122" fill="white"/>
</g>
<defs>
<linearGradient id="paint0_linear_397_547" x1="-0.000203997" y1="207.251" x2="-0.000203997" y2="-0.000268642" gradientUnits="userSpaceOnUse">
<stop stop-color="#323232"/>
<stop offset="1" stop-color="#707070"/>
</linearGradient>
</defs>
</svg>
