<svg width="42" height="71" viewBox="0 0 42 71" fill="none" xmlns="http://www.w3.org/2000/svg">
<g clip-path="url(#clip0_8_281)">
<path d="M0.402897 15.349C-0.644469 20.3937 0.604065 25.8369 1.27783 31.0546C1.83108 35.3619 1.98397 39.782 1.73127 44.1645C1.54607 47.421 1.13414 50.6565 1.16607 53.9287C1.1782 58.1016 2.02155 62.1534 3.56736 65.4654C4.34575 67.1038 5.32311 68.4585 6.43739 69.4434C7.55166 70.4284 8.77849 71.022 10.0399 71.1865C12.4348 71.4173 14.7435 69.9122 17.065 68.9841C19.2991 68.0943 21.5987 67.7289 23.8952 67.8986C25.4279 68.0087 26.9575 68.36 28.4934 68.3968C32.5168 68.4807 37.1565 65.843 39.5737 60.2739C44.1208 49.786 41.8952 33.8287 35.8186 26.3246C32.9862 22.8269 29.5471 20.8184 26.0506 19.9112C23.5503 19.2662 20.9415 19.1351 18.6296 17.4728C16.0751 15.6531 14.1432 12.1712 11.8185 9.68553C7.53648 5.10757 2.16234 6.89576 0.402897 15.349Z" fill="#CDDDF9"/>
<g style="mix-blend-mode:multiply">
<path d="M35.9558 61.4905H4.94678V64.1282H35.9558V61.4905Z" fill="#5A5A5A"/>
</g>
<path d="M29.6908 30.6613H6.25281V62.0988H29.6908V30.6613Z" fill="#037EE6"/>
<path d="M34.5828 30.6613H28.8702V62.0988H34.5828V30.6613Z" fill="#0060C8"/>
<path d="M11.959 30.6613H6.25282L3.05963 24.8038H8.76586L11.959 30.6613Z" fill="#329CFF"/>
<path d="M28.8702 30.6613H34.5764L37.7696 24.8038H32.0634L28.8702 30.6613Z" fill="#329CFF"/>
<path d="M22.0751 40.908H6.25281V54.4531H22.0751V40.908Z" fill="white"/>
<path d="M18.6616 43.488H7.50775V44.5525H18.6616V43.488Z" fill="#037EE6"/>
<path d="M18.6616 45.8478H7.50775V46.9123H18.6616V45.8478Z" fill="#037EE6"/>
<path d="M12.9074 48.2023H7.50775V49.2668H12.9074V48.2023Z" fill="#037EE6"/>
<path d="M23.4865 49.5133C23.4865 50.0319 23.3928 50.5388 23.2174 50.97C23.042 51.4012 22.7926 51.7372 22.5009 51.9357C22.2091 52.1341 21.8881 52.1861 21.5784 52.0849C21.2687 51.9837 20.9842 51.734 20.7609 51.3673C20.5376 51.0006 20.3856 50.5334 20.324 50.0248C20.2624 49.5162 20.294 48.989 20.4148 48.5099C20.5356 48.0308 20.7403 47.6213 21.0028 47.3332C21.2654 47.0451 21.5741 46.8913 21.8899 46.8913C22.3133 46.8913 22.7194 47.1676 23.0188 47.6593C23.3183 48.151 23.4865 48.8179 23.4865 49.5133Z" fill="#E77D84"/>
<path d="M15.5564 20.373L17.5303 24.7093L20.7132 22.018C20.7132 22.018 23.0869 20.3797 23.4274 18.4353C23.7926 16.3126 22.8994 14.7012 21.5324 14.2639C21.1181 14.1311 20.6859 14.1422 20.2755 14.2962C19.8651 14.4502 19.4896 14.7421 19.1834 15.1452C19.0415 14.5986 18.8011 14.1093 18.4842 13.7225C18.1672 13.3357 17.7841 13.0637 17.3699 12.9317C16.0005 12.4944 14.6755 13.3926 14.3103 15.5153C13.9772 17.4631 15.5564 20.373 15.5564 20.373Z" fill="#F74440" fill-opacity="0.63"/>
</g>
<defs>
<clipPath id="clip0_8_281">
<rect width="42" height="71" fill="white"/>
</clipPath>
</defs>
</svg>
