<svg width="171" height="196" viewBox="0 0 171 196" fill="none" xmlns="http://www.w3.org/2000/svg">
<path d="M146.825 100.288H118.25V78.9961H19.616V96.6316H26.5182V87.5988H111.347V122.44H118.25V108.847H132.468V138.742H163.77V151.259H158.076V159.861H163.77V172.464H155.522C153.969 164.292 148.033 158.141 140.993 158.141C133.952 158.141 128.051 164.292 126.498 172.464H118.25V131.085H111.347V172.464H69.9681C68.4151 164.292 62.4791 158.141 55.4388 158.141C48.3985 158.141 42.497 164.292 40.944 172.464H26.5182V156.893H19.616V181.067H40.9095C42.4625 189.239 48.3985 195.39 55.4388 195.39C62.4791 195.39 68.4151 189.283 69.9681 181.067H126.498C128.051 189.239 133.987 195.39 141.027 195.39C148.067 195.39 154.003 189.283 155.556 181.067H170.672V132.806L146.825 100.288ZM139.371 130.182V108.89H143.753L159.387 130.182H139.371ZM55.4388 186.788C51.0213 186.788 47.3976 182.314 47.3976 176.766C47.3976 171.26 50.9868 166.743 55.4388 166.743C59.8908 166.743 63.48 171.217 63.48 176.766C63.48 182.271 59.8908 186.788 55.4388 186.788ZM141.027 186.788C136.61 186.788 132.986 182.314 132.986 176.766C132.986 171.26 136.575 166.743 141.027 166.743C145.445 166.743 149.068 171.217 149.068 176.766C149.034 182.271 145.445 186.788 141.027 186.788Z" fill="black" fill-opacity="0.66"/>
<path d="M58.8898 172.464H51.9875V181.067H58.8898V172.464Z" fill="black" fill-opacity="0.66"/>
<path d="M144.478 172.464H137.576V181.067H144.478V172.464Z" fill="black" fill-opacity="0.66"/>
<path d="M37.5272 122.482H14.6807V131.085H37.5272V122.482Z" fill="black" fill-opacity="0.66"/>
<path d="M7.7785 122.482H0.876221V131.085H7.7785V122.482Z" fill="black" fill-opacity="0.66"/>
<path d="M56.267 105.277H33.4204V113.88H56.267V105.277Z" fill="black" fill-opacity="0.66"/>
<path d="M26.5182 105.277H19.616V113.88H26.5182V105.277Z" fill="black" fill-opacity="0.66"/>
<path d="M56.267 139.688H33.4204V148.29H56.267V139.688Z" fill="black" fill-opacity="0.66"/>
<path d="M26.5182 139.688H19.616V148.29H26.5182V139.688Z" fill="black" fill-opacity="0.66"/>
<g opacity="0.5" clip-path="url(#clip0_475_1069)">
<path d="M65.1116 13.5597C62.7902 14.7205 60.6435 16.6316 59.509 19.4667C56.8996 18.5725 54.2207 19.1929 51.9748 20.3545C46.3942 23.2411 42.6061 30.7336 45.1519 37.2474C47.6065 43.5279 53.6853 46.6693 59.0658 48.1596C61.7882 48.9137 64.4175 49.2702 66.4839 49.3835C67.5164 49.4401 68.4259 49.437 69.1499 49.388C69.5106 49.3636 69.8436 49.3266 70.1328 49.2747C70.3844 49.2295 70.7336 49.1519 71.0502 48.9881C71.3668 48.8244 71.649 48.5754 71.8454 48.3889C72.071 48.1745 72.3161 47.9125 72.5713 47.6182C73.0837 47.0278 73.6894 46.2472 74.3378 45.321C75.6356 43.4676 77.1488 40.9684 78.4653 38.1253C81.0672 32.5061 83.0591 25.1901 80.6045 18.9096C78.0527 12.3804 70.6912 10.7698 65.1116 13.5597Z" fill="#F74440"/>
</g>
<path d="M113.148 132.598V123.996H116.599V110.403H130.818V140.298H162.12V152.815H156.425V161.417H162.12V173.977H153.871C152.318 165.805 146.382 159.654 139.342 159.654C132.302 159.654 126.4 165.805 124.847 173.977H116.599V132.598H113.148Z" fill="#FBC3BC"/>
<defs>
<clipPath id="clip0_475_1069">
<rect width="47.8959" height="45.4681" fill="white" transform="matrix(0.888215 -0.459427 0.364012 0.931394 35.1929 22.6719)"/>
</clipPath>
</defs>
</svg>
