<svg width="170" height="117" viewBox="0 0 170 117" fill="none" xmlns="http://www.w3.org/2000/svg">
<path d="M145.949 21.6207H117.373V0.329102H18.7397V17.9646H25.642V8.93179H110.471V43.7727H117.373V30.1804H131.592V60.0747H162.894V72.5917H157.199V81.1943H162.894V93.7973H154.646C153.093 85.6247 147.157 79.4738 140.116 79.4738C133.076 79.4738 127.175 85.6247 125.622 93.7973H117.373V52.4184H110.471V93.7973H69.0919C67.5389 85.6247 61.6029 79.4738 54.5626 79.4738C47.5223 79.4738 41.6208 85.6247 40.0678 93.7973H25.642V78.2264H18.7397V102.4H40.0333C41.5863 110.573 47.5223 116.723 54.5626 116.723C61.6029 116.723 67.5389 110.616 69.0919 102.4H125.622C127.175 110.573 133.111 116.723 140.151 116.723C147.191 116.723 153.127 110.616 154.68 102.4H169.796V54.1389L145.949 21.6207ZM138.494 51.5151V30.2234H142.877L158.511 51.5151H138.494ZM54.5626 108.121C50.1451 108.121 46.5214 103.647 46.5214 98.0986C46.5214 92.5929 50.1106 88.0765 54.5626 88.0765C59.0145 88.0765 62.6037 92.5499 62.6037 98.0986C62.6037 103.604 59.0145 108.121 54.5626 108.121ZM140.151 108.121C135.733 108.121 132.11 103.647 132.11 98.0986C132.11 92.5929 135.699 88.0765 140.151 88.0765C144.568 88.0765 148.192 92.5499 148.192 98.0986C148.157 103.604 144.568 108.121 140.151 108.121Z" fill="#EBC7C7"/>
<path d="M58.0136 93.7969H51.1113V102.4H58.0136V93.7969Z" fill="#EBC7C7"/>
<path d="M143.602 93.7969H136.7V102.4H143.602V93.7969Z" fill="#EBC7C7"/>
<path d="M36.651 43.8154H13.8044V52.4181H36.651V43.8154Z" fill="#EBC7C7"/>
<path d="M6.90228 43.8154H0V52.4181H6.90228V43.8154Z" fill="#EBC7C7"/>
<path d="M55.3907 26.6104H32.5442V35.213H55.3907V26.6104Z" fill="#EBC7C7"/>
<path d="M25.642 26.6104H18.7397V35.213H25.642V26.6104Z" fill="#EBC7C7"/>
<path d="M55.3907 61.0215H32.5442V69.6242H55.3907V61.0215Z" fill="#EBC7C7"/>
<path d="M25.642 61.0215H18.7397V69.6242H25.642V61.0215Z" fill="#EBC7C7"/>
<path d="M111.124 49.6118V38.651H115.07V21.333H131.33V59.4216H167.124V75.3695H160.612V86.3303H167.124V102.333H157.692C155.916 91.9203 149.128 84.0834 141.077 84.0834C133.027 84.0834 126.278 91.9203 124.502 102.333H115.07V49.6118H111.124Z" fill="#EBC7C7"/>
</svg>
