<svg width="1438" height="581" viewBox="0 0 1438 581" fill="none" xmlns="http://www.w3.org/2000/svg">
<path d="M1434.81 564.938C1434.78 571.656 1434.77 575.016 1432.66 577.118C1430.55 579.22 1427.19 579.224 1420.46 579.232L14.162 580.89C7.68304 580.898 4.44349 580.902 2.45137 578.905C0.459139 576.909 0.47336 573.673 0.501681 567.2L2.88419 22.4836C2.94188 9.28141 2.97079 2.68027 7.00141 0.703698C7.08026 0.664971 7.15991 0.627715 7.24025 0.591929C11.3378 -1.23498 16.2501 3.05406 26.0746 11.6322C124.206 97.3142 173.272 140.155 234.268 156.705C235.587 157.062 236.909 157.411 238.233 157.749C299.488 173.399 364.57 160.622 494.735 135.07L791.875 76.7396L870.167 57.8276C1055.4 13.0833 1246.37 2.21636 1433.73 25.7586C1435.71 26.0071 1437.16 27.6716 1437.16 29.6696L1434.81 564.938Z" fill="white"/>
</svg>
