<svg width="359" height="64" viewBox="0 0 359 64" fill="none" xmlns="http://www.w3.org/2000/svg">
<rect x="124.19" width="109.872" height="63.563" rx="5" fill="#DCC48E" fill-opacity="0.7"/>
<path d="M184.336 44.2858H171.8V18.9629H184.336V44.2858Z" fill="#FF5F00" fill-opacity="0.7"/>
<path d="M172.595 31.6254C172.595 26.4883 174.735 21.9135 178.067 18.965C175.545 16.7287 172.425 15.5172 169.215 15.5215C161.301 15.5215 154.888 22.7321 154.888 31.6254C154.888 40.5187 161.301 47.7293 169.213 47.7293C172.425 47.7336 175.545 46.5221 178.065 44.2857C174.735 41.3372 172.595 36.7625 172.595 31.6254Z" fill="#EB001B" fill-opacity="0.7"/>
<path d="M201.247 31.6254C201.247 40.5187 194.834 47.7293 186.922 47.7293C183.71 47.7336 180.591 46.5221 178.068 44.2857C181.4 41.3372 183.54 36.7625 183.54 31.6254C183.54 26.4883 181.4 21.9135 178.068 18.965C180.591 16.7287 183.71 15.5172 186.922 15.5215C194.834 15.5215 201.247 22.7321 201.247 31.6254Z" fill="#F79E1B" fill-opacity="0.7"/>
<rect x="248.38" width="109.872" height="63.563" rx="5" fill="#9698C0" fill-opacity="0.7"/>
<path d="M313.582 21.3756C313.243 20.3729 312.943 19.5146 312.665 18.6469C312.572 18.3551 312.436 18.2495 312.152 18.2511C310.201 18.2651 308.25 18.2682 306.299 18.2495C305.955 18.2464 305.871 18.3923 305.876 18.7323C305.888 19.4509 305.879 20.1696 305.797 20.91C305.498 20.1913 305.177 19.4851 304.912 18.7524C304.77 18.3582 304.573 18.2433 304.199 18.2495C302.718 18.2728 301.238 18.2682 299.757 18.2511C299.446 18.2464 299.298 18.3644 299.173 18.6795C297.497 22.9325 295.808 27.1777 294.122 31.4244C293.895 31.9956 293.898 31.9972 294.48 31.9987C295.572 31.9987 296.666 32.0189 297.759 31.9879C298.152 31.977 298.253 32.1291 298.252 32.5404C298.24 36.0654 298.246 39.592 298.246 43.117C298.246 43.8667 298.247 43.8682 298.93 43.8682C302.901 43.8682 306.873 43.8605 310.844 43.8791C311.306 43.8806 311.623 43.7254 311.903 43.3296C312.245 42.8469 312.64 42.4107 312.996 41.9404C313.161 41.7216 313.271 41.6998 313.443 41.9373C313.817 42.4511 314.235 42.9276 314.594 43.4538C314.824 43.7906 315.091 43.8822 315.448 43.876C316.638 43.8589 317.829 43.8837 319.017 43.862C319.401 43.8542 319.567 43.9551 319.542 44.4239C319.507 45.0991 319.534 45.7789 319.532 46.4557C319.528 48.4254 318.422 49.664 316.658 49.6656C313.436 49.6702 310.212 49.6687 306.989 49.6687C300.97 49.6687 294.95 49.6702 288.931 49.6687C287.565 49.6687 286.555 48.9004 286.198 47.595C286.098 47.2395 286.055 46.8748 286.055 46.5023C286.057 36.202 286.055 25.9018 286.057 15.6031C286.057 13.6644 287.173 12.4196 288.912 12.4196C298.169 12.4165 307.427 12.4165 316.684 12.418C318.42 12.418 319.53 13.6675 319.535 15.6077C319.537 16.3466 319.521 17.087 319.542 17.8242C319.552 18.1797 319.435 18.2666 319.133 18.2635C317.791 18.248 316.448 18.2713 315.107 18.248C314.75 18.2418 314.566 18.3458 314.45 18.7462C314.205 19.5906 313.903 20.4133 313.582 21.3756Z" fill="white" fill-opacity="0.7"/>
<path d="M317.346 22.4947C317.103 22.6298 317.101 22.8191 317.051 22.9666C316.3 25.18 315.548 27.395 314.814 29.6161C314.697 29.9716 314.549 30.1423 314.191 30.1097C313.791 30.074 313.387 30.0787 312.988 30.1082C312.643 30.1346 312.48 29.9995 312.357 29.6285C311.627 27.4058 310.872 25.194 310.124 22.979C310.073 22.8254 310.05 22.65 309.895 22.5211C309.784 22.6655 309.827 22.8378 309.827 22.9914C309.824 25.1924 309.816 27.395 309.835 29.5959C309.839 30.0135 309.718 30.1314 309.361 30.1097C308.892 30.0802 308.42 30.0942 307.95 30.1051C307.717 30.1097 307.637 30.0057 307.637 29.7496C307.643 26.7011 307.643 23.6527 307.637 20.6042C307.637 20.3341 307.741 20.2643 307.963 20.2658C309.001 20.2736 310.038 20.2782 311.076 20.2627C311.355 20.2581 311.418 20.4428 311.495 20.6678C312.097 22.4342 312.706 24.2006 313.313 25.9654C313.332 26.0228 313.35 26.0818 313.376 26.1361C313.441 26.2805 313.43 26.5351 313.591 26.5413C313.765 26.549 313.757 26.2945 313.807 26.1486C314.428 24.3403 315.052 22.532 315.652 20.7144C315.766 20.3652 315.918 20.2487 316.25 20.2581C317.219 20.2844 318.187 20.2767 319.156 20.2612C319.439 20.2565 319.542 20.345 319.541 20.6771C319.531 23.6791 319.531 26.681 319.541 29.6829C319.542 30.0088 319.444 30.1175 319.158 30.1051C318.702 30.0864 318.244 30.0802 317.789 30.1066C317.448 30.1268 317.337 29.9995 317.34 29.613C317.354 27.4431 317.347 25.2716 317.347 23.1016C317.346 22.92 317.346 22.7384 317.346 22.4947ZM300.169 36.8865C300.169 35.4244 300.179 33.9607 300.162 32.4985C300.158 32.1307 300.233 31.9894 300.595 31.9925C302.781 32.0096 304.967 32.008 307.153 31.9941C307.485 31.9925 307.6 32.1027 307.577 32.4675C307.554 32.8509 307.557 33.2374 307.577 33.6207C307.597 33.9684 307.476 34.0693 307.17 34.0662C305.731 34.0522 304.291 34.0709 302.852 34.0522C302.483 34.0476 302.31 34.1516 302.351 34.5924C302.378 34.8671 302.372 35.1481 302.353 35.4228C302.326 35.7845 302.452 35.9009 302.78 35.8978C304.15 35.8807 305.519 35.89 306.889 35.8916C307.436 35.8916 307.436 35.8931 307.438 36.5016C307.439 36.8244 307.423 37.1488 307.442 37.4717C307.463 37.8256 307.356 37.9544 307.019 37.9498C305.622 37.9296 304.224 37.9529 302.827 37.9342C302.467 37.9296 302.347 38.0475 302.35 38.4558C302.356 39.7612 302.342 39.7612 303.519 39.7612C304.738 39.7612 305.955 39.7705 307.173 39.7549C307.48 39.7503 307.598 39.8558 307.579 40.202C307.558 40.5854 307.555 40.9734 307.579 41.3552C307.601 41.7231 307.481 41.8302 307.153 41.8286C305.133 41.8131 303.113 41.8209 301.093 41.8209C300.17 41.8209 300.17 41.8209 300.17 40.812C300.169 39.5035 300.169 38.195 300.169 36.8865ZM302.128 20.2674C302.502 20.2674 302.876 20.2922 303.247 20.2596C303.553 20.2332 303.685 20.3838 303.8 20.6725C304.976 23.6728 306.161 26.6685 307.353 29.6611C307.483 29.9871 307.485 30.1237 307.111 30.1082C306.517 30.0833 305.922 30.0911 305.328 30.1066C305.081 30.1128 304.951 30.0119 304.872 29.7527C304.766 29.4035 304.6 29.076 304.507 28.7236C304.401 28.317 304.202 28.1742 303.818 28.1835C302.657 28.2099 301.495 28.2021 300.332 28.1881C300.025 28.185 299.848 28.2937 299.752 28.6305C299.647 28.9953 299.482 29.3383 299.373 29.7015C299.287 29.9902 299.15 30.119 298.864 30.1082C298.27 30.0864 297.675 30.0942 297.081 30.1051C296.832 30.1097 296.757 30.0414 296.869 29.762C298.098 26.6856 299.322 23.6077 300.542 20.5266C300.622 20.3232 300.738 20.2596 300.925 20.2643C301.326 20.2736 301.728 20.2674 302.128 20.2674ZM302.049 22.397C301.624 23.5611 301.19 24.733 300.772 25.9111C300.673 26.1905 300.89 26.1641 301.034 26.1656C301.739 26.1703 302.445 26.1594 303.15 26.1718C303.487 26.1781 303.515 26.0275 303.401 25.7202C303.018 24.7004 302.647 23.6744 302.27 22.65C302.237 22.5553 302.22 22.4389 302.049 22.397ZM318.775 32.0018C317.457 33.5602 316.214 35.0456 314.951 36.5109C314.699 36.8043 314.673 36.9781 314.941 37.287C316.109 38.6405 317.254 40.0219 318.403 41.3956C318.494 41.5027 318.624 41.585 318.643 41.8162C317.771 41.8162 316.908 41.8178 316.044 41.8147C315.871 41.8131 315.787 41.647 315.685 41.526C314.948 40.649 314.206 39.7782 313.483 38.8873C313.271 38.625 313.141 38.625 312.93 38.8826C312.215 39.7596 311.476 40.6149 310.759 41.4903C310.568 41.7231 310.371 41.8364 310.08 41.8286C309.334 41.8069 308.586 41.8209 307.837 41.8209C307.794 41.6284 307.936 41.5694 308.01 41.481C309.179 40.0856 310.346 38.6855 311.535 37.3103C311.788 37.0185 311.779 36.8524 311.534 36.5652C310.37 35.2055 309.225 33.8256 308.077 32.4488C307.977 32.3293 307.845 32.23 307.792 32.0003C308.674 32.0003 309.539 32.0018 310.403 31.9987C310.583 31.9987 310.667 32.1462 310.769 32.2672C311.485 33.124 312.212 33.97 312.907 34.847C313.168 35.1776 313.321 35.2226 313.603 34.864C314.285 33.9964 315.017 33.1737 315.713 32.3185C315.907 32.081 316.109 31.9847 316.397 31.991C317.156 32.0142 317.915 32.0018 318.775 32.0018Z" fill="white" fill-opacity="0.7"/>
<path d="M319.507 39.4569C318.761 38.6622 318.004 37.8582 317.247 37.0557C317.145 36.9486 317.136 36.8586 317.238 36.7468C317.983 35.9319 318.729 35.1155 319.507 34.2602C319.507 36.0344 319.507 37.7604 319.507 39.4569Z" fill="white" fill-opacity="0.7"/>
<rect x="0.5" y="0.5" width="108.872" height="62.563" rx="4.5" fill="#6888FA" stroke="white"/>
<path d="M59.681 39.3814C57.6323 39.3814 56.509 39.0891 54.7839 38.3516L54.1447 38.0482L53.4199 42.4318C54.6663 42.9662 56.9129 43.4254 59.237 43.4616C64.6957 43.4616 68.2635 40.8259 68.3063 36.7707C68.349 34.5413 66.9423 32.8491 63.9709 31.4548C62.1683 30.5502 61.045 29.9435 61.045 29.025C61.045 28.2123 62.0051 27.3467 64.011 27.3467C65.736 27.3189 66.9423 27.7002 67.9024 28.0954L68.3838 28.3181L69.1086 24.082L68.9829 24.1098C67.9479 23.709 66.3351 23.2832 64.3293 23.2832C59.1942 23.2832 55.5702 25.9384 55.5435 29.7431C55.5114 32.5402 58.1217 34.1155 60.0928 35.0535C62.1174 36.0137 62.7941 36.6176 62.7887 37.4804C62.7754 38.7913 61.1707 39.3814 59.681 39.3814ZM82.31 23.6422H78.2982C77.0492 23.6422 76.1158 23.9901 75.5675 25.2649L67.8516 43.1888H73.3103L74.4015 40.2553L81.061 40.2609C81.2241 40.9455 81.7029 43.1888 81.7029 43.1888H86.5143L82.31 23.6422ZM75.8965 36.2447L77.9666 30.7812C77.9398 30.8369 78.3945 29.6512 78.6566 28.9164L79.0123 30.6031L80.2132 36.2447H75.8965Z" fill="white"/>
<path d="M44.9097 43.033H50.1089L53.3585 23.4781H48.1619V23.4725L44.9097 43.033Z" fill="white"/>
<path d="M35.4928 36.9711L34.9525 34.2547V34.263L33.1285 25.2843C32.8156 24.0402 31.9009 23.6728 30.7669 23.6283H22.393L22.3262 24.0402C24.2117 24.4994 25.91 25.1646 27.4291 25.9801C27.7019 26.1555 27.8169 26.3475 27.9105 26.6314L32.4037 43.161H37.8971L46.0838 23.6422H40.577L35.4928 36.9711Z" fill="white"/>
</svg>
